{
  "asset": {
    "version": "2.0",
    "generator": "sushi morph test"
  },
  "scene": 0,
  "scenes": [
    {
      "nodes": [
        0,
        1
      ]
    }
  ],
  "nodes": [
    {
      "name": "root"
    },
    {
      "name": "face",
      "mesh": 0,
      "skin": 0
    }
  ],
  "skins": [
    {
      "joints": [
        0
      ],
      "inverseBindMatrices": 0,
      "skeleton": 0,
      "name": "face_rig"
    }
  ],
  "meshes": [
    {
      "name": "face",
      "primitives": [
        {
          "attributes": {
            "POSITION": 1,
            "JOINTS_0": 2,
            "WEIGHTS_0": 3
          },
          "indices": 4,
          "mode": 4,
          "targets": [
            {
              "POSITION": 5
            },
            {
              "POSITION": 6
            }
          ]
        }
      ],
      "weights": [
        0.0,
        0.0
      ],
      "extras": {
        "targetNames": [
          "jawOpen",
          "eyeBlinkLeft"
        ]
      }
    }
  ],
  "animations": [
    {
      "name": "talk",
      "samplers": [
        {
          "input": 7,
          "output": 8,
          "interpolation": "LINEAR"
        }
      ],
      "channels": [
        {
          "sampler": 0,
          "target": {
            "node": 1,
            "path": "weights"
          }
        }
      ]
    },
    {
      "name": "turn",
      "samplers": [
        {
          "input": 9,
          "output": 10,
          "interpolation": "LINEAR"
        }
      ],
      "channels": [
        {
          "sampler": 0,
          "target": {
            "node": 0,
            "path": "rotation"
          }
        }
      ]
    }
  ],
  "buffers": [
    {
      "byteLength": 328,
      "uri": "data:application/octet-stream;base64,"
    }
  ],
  "bufferViews": [
    {
      "buffer": 0,
      "byteOffset": 0,
      "byteLength": 64
    },
    {
      "buffer": 0,
      "byteOffset": 64,
      "byteLength": 36
    },
    {
      "buffer": 0,
      "byteOffset": 100,
      "byteLength": 24
    },
    {
      "buffer": 0,
      "byteOffset": 124,
      "byteLength": 48
    },
    {
      "buffer": 0,
      "byteOffset": 172,
      "byteLength": 6
    },
    {
      "buffer": 0,
      "byteOffset": 180,
      "byteLength": 36
    },
    {
      "buffer": 0,
      "byteOffset": 216,
      "byteLength": 36
    },
    {
      "buffer": 0,
      "byteOffset": 252,
      "byteLength": 12
    },
    {
      "buffer": 0,
      "byteOffset": 264,
      "byteLength": 24
    },
    {
      "buffer": 0,
      "byteOffset": 288,
      "byteLength": 8
    },
    {
      "buffer": 0,
      "byteOffset": 296,
      "byteLength": 32
    }
  ],
  "accessors": [
    {
      "bufferView": 0,
      "componentType": 5126,
      "count": 1,
      "type": "MAT4"
    },
    {
      "bufferView": 1,
      "componentType": 5126,
      "count": 3,
      "type": "VEC3",
      "min": [
        0.0,
        0.0,
        0.0
      ],
      "max": [
        1.0,
        1.0,
        0.0
      ]
    },
    {
      "bufferView": 2,
      "componentType": 5123,
      "count": 3,
      "type": "VEC4"
    },
    {
      "bufferView": 3,
      "componentType": 5126,
      "count": 3,
      "type": "VEC4"
    },
    {
      "bufferView": 4,
      "componentType": 5123,
      "count": 3,
      "type": "SCALAR"
    },
    {
      "bufferView": 5,
      "componentType": 5126,
      "count": 3,
      "type": "VEC3",
      "min": [
        0.0,
        1.0,
        0.0
      ],
      "max": [
        0.0,
        1.0,
        0.0
      ]
    },
    {
      "bufferView": 6,
      "componentType": 5126,
      "count": 3,
      "type": "VEC3",
      "min": [
        0.0,
        0.0,
        -1.0
      ],
      "max": [
        0.0,
        0.0,
        0.0
      ]
    },
    {
      "bufferView": 7,
      "componentType": 5126,
      "count": 3,
      "type": "SCALAR",
      "min": [
        0.0
      ],
      "max": [
        1.0
      ]
    },
    {
      "bufferView": 8,
      "componentType": 5126,
      "count": 6,
      "type": "SCALAR"
    },
    {
      "bufferView": 9,
      "componentType": 5126,
      "count": 2,
      "type": "SCALAR",
      "min": [
        0.0
      ],
      "max": [
        1.0
      ]
    },
    {
      "bufferView": 10,
      "componentType": 5126,
      "count": 2,
      "type": "VEC4"
    }
  ]
}
